/* XPM */
static char * arepa_xpm[] = {
"64 64 6 1",
" 	c #000000",
".	c #9C5A3C",
"+	c #464646",
"@	c #FFC20E",
"#	c #F5E49C",
"$	c #E5AA7A",
"                                                                ",
" .............................................................. ",
" .............................................................. ",
" .............................................................. ",
" .............................................................. ",
" .............................................................. ",
" .............................................................. ",
" .............................................................. ",
" .............................................................. ",
" ...........................+++++++++.......................... ",
" .......................++++@@@@@@@@@++++...................... ",
" .....................++@@@@#############++.................... ",
" ...................++@@@##################++.................. ",
" ..................+@@@@#####################+................. ",
" ................++@@@################$#######++............... ",
" ...............+@@@################$$$#########+.............. ",
" ..............+@@################$$$$$$#########+............. ",
" .............+@@###############$$$$$$$###########+............ ",
" ............+@@###############$$$$$$$#############+........... ",
" ............+@##############$$$$$$$###############+........... ",
" ...........+@@############$$$$$$$$#################+.......... ",
" ...........+@###########$$$$$$$$###################+.......... ",
" ..........+@##########$$$$$$$$######################+......... ",
" ..........+@#########$$$$$$$##############$#########+......... ",
" .........+@########$$$$$$$##############$$$$#########+........ ",
" .........+@######$$$$$$$##############$$$$$$#########+........ ",
" .........+@####$$$$$$$##############$$$$$$###########+........ ",
" ........+@@###$$$$$$$##############$$$$$$#############+....... ",
" ........+@#######################$$$$$$$##############+....... ",
" ........+@#####################$$$$$$$$###############+....... ",
" ........+@###################$$$$$$$$#################+....... ",
" ........+@#################$$$$$$$####################+....... ",
" ........+@################$$$$$$################$#####+....... ",
" ........+@##############$$$$$$$###############$$$#####+....... ",
" ........+@############$$$$$$$$##############$$$$######+....... ",
" ........+@@#########$$$$$$$$##############$$$$$$######+....... ",
" .........+@########$$$$$$$###############$$$$$$######+........ ",
" .........+@#########$#$################$$$$$$$#######+........ ",
" .........+@##########################$$$$$$$#########+........ ",
" ..........+@#######################$$$$$$$##########+......... ",
" ..........+@@####################$$$$$$$$###########+......... ",
" ...........+@###################$$$$$$$############+.......... ",
" ...........+@@###############$$$$$$$$##############+.......... ",
" ............+@##############$$$$$$################+........... ",
" ............+@@###########$$$$$$##################+........... ",
" .............+@@#########$$$$$###################+............ ",
" ..............+@@###############################+............. ",
" ...............+@@#############################+.............. ",
" ................++@##########################++............... ",
" ..................+@@#######################+................. ",
" ...................++@@###################++.................. ",
" .....................++@@@@#############++.................... ",
" .......................++++@@@@@@@@@++++...................... ",
" ...........................+++++++++.......................... ",
" .............................................................. ",
" .............................................................. ",
" .............................................................. ",
" .............................................................. ",
" .............................................................. ",
" .............................................................. ",
" .............................................................. ",
" .............................................................. ",
" .............................................................. ",
"                                                                "};
