/* XPM */
static char * bishop_xpm[] = {
"64 64 4 1",
" 	c #000000",
".	c #CDC1A2",
"+	c #2A1F02",
"@	c #533F09",
"                                                                ",
" .............................................................. ",
" .............................................................. ",
" .............................................................. ",
" .............................................................. ",
" .............................................................. ",
" ...........................      ............................. ",
" ..........................  +++  ............................. ",
" .......................... +++++  ............................ ",
" .........................  ++++++  ........................... ",
" ......................... +++++++  ........................... ",
" .........................  ++++++ ............................ ",
" .......................... +++++  ............................ ",
" .......................... +++++ ............................. ",
" .........................  +++++ ............................. ",
" ........................  +++++  ............................. ",
" .......................  +++++  .....  ....................... ",
" ......................  ++++++ .....    ...................... ",
" ....................   +++++++ ....  ++   .................... ",
" .................... ++++++++ ....  +++++ .................... ",
" ...................  ++++++++ .... ++++++  ................... ",
" ................... ++++++++  .... +++++++ ................... ",
" ................... ++++++++ ..... +++++++ ................... ",
" .................. +++++++++ ..... ++++++++ .................. ",
" .................  +++++++++ ..... ++++++++@ ................. ",
" ................. +++++++++ ...... ++++++++@ ................. ",
" ................  +++++++++ ...... ++++++++@  ................ ",
" ...............  ++++++++++ ...... ++++++++@@  ............... ",
" ............... +++++++++++ ...... ++++++++@@@ ............... ",
" ...............  ++++++++++ ...... ++++++++@@  ............... ",
" ................ ++++++++++ ...... ++++++++@@ ................ ",
" ................ ++++++++++ ..... +++++++++@@ ................ ",
" ................ ++++++++++ ..... +++++++++@@ ................ ",
" ................ ++++++++++       ++++++++@@@ ................ ",
" ................ ++++++++++  +++++++++++++@@@ ................ ",
" ................ ++++++++++++++++++++++++@@@@ ................ ",
" ................ ++++++++++++++++++++++++@@@@ ................ ",
" ................ +++++++++++++++++++++++@@@@@ ................ ",
" ................ +++++++++++++++++++++++@@@@@ ................ ",
" ................ +++++++++++++++++++++++@@@@@ ................ ",
" ................  ++++++++++++++++++++++@@@@  ................ ",
" ................. +++++++++++++++++++++@@@@@ ................. ",
" .................  +++++++++++++++++++@@@@@  ................. ",
" .................. +++++++++++++++++++@@@@@ .................. ",
" ..................  +++++++++++++++++@@@@@  .................. ",
" ...................  +++++++++++++++@@@@@  ................... ",
" ..................                          .................. ",
" ................   ++++++++++++++++++@@@@@@   ................ ",
" ..............   ++++++++++++++++++++++@@@@@@   .............. ",
" .............. ++++++++++++++++++++++++++@@@@@@ .............. ",
" ............   +++++++++++++++++++++++++++@@@@@   ............ ",
" ............ ++++++++++++++++++++++++++++++@@@@@ ............. ",
" ............ +++++++++++++++++++++++++++++++@@@@ ............. ",
" ............ +++++++++++++++++++++++++++++++@@@@ ............. ",
" ............ +++++++++++++++++++++++++++++++@@@@ ............. ",
" ............ +++++++++++++++++++++++++++++++@@@@ ............. ",
" ............ ++++++++++++++++++++++++++++++++@@@ ............. ",
" ............                                     ............. ",
" .............................................................. ",
" .............................................................. ",
" .............................................................. ",
" .............................................................. ",
" .............................................................. ",
"                                                                "};
