/* XPM */
static char * pixil_frame_0 (1)_xpm[] = {
"64 64 14 1",
" 	c #000000",
".	c #9C5A3C",
"+	c #FFC20E",
"@	c #F5E49C",
"#	c #FFF200",
"$	c #9B593C",
"%	c #FFF9BD",
"&	c #9B5A3C",
"*	c #9D5B3C",
"=	c #9C5B3C",
"-	c #9D5A3C",
";	c #9B5A3B",
">	c #9C593C",
",	c #9D5A3D",
"                                                                ",
" .............................................................. ",
" .............................................................. ",
" .............................................................. ",
" .............................................................. ",
" .............................................................. ",
" .............................................................. ",
" .............................................................. ",
" .............................................................. ",
" ................     ......................................... ",
" ...............  ++++  ....................................... ",
" ..............   ++++++  ..................................... ",
" .............. + ++++  +  .................................... ",
" .............. + ++++. .++  .................................. ",
" .............. + +++++..++++  ................................ ",
" ............. +@ +#++.++++++++   ............................. ",
" ...........$  +@ +##+.++++.+++   ............................. ",
" ............ +@% ++#+# ++......+  ............................ ",
" ............ +%%  +#+..++ .+.  ...  .......................... ",
" ............ +@% ++##+++##++++..+. +  ........................ ",
" ............ +@%  ++++++##++++++.. .+  ....................... ",
" ........&... +@%@ +.+.++#######++.  .++  ..................... ",
" ............ +%@@ +.+++. ++####++++.. ..+   .................. ",
" ............ +@%@ ..+++..+++. ..+++++.  .+++  ................ ",
" ............ +@%@ +.+++..+++. ..++++++..  ..  ................ ",
" ......*..... +@%@ +.++++++++. ..+++. +++..  +  ............... ",
" ............ +@%@ +++++#+++++.+##++..++++++..++  ............. ",
" ......=..... ++@@  ++++##+.+++###+#+++++##++.++++  ........... ",
" ............ ++@%@    +##++.++##+++##++#+##++++#+++   ........ ",
" ....&....... ++@@%@   +##+. +###+++++++.+##+.  +#+++   ....... ",
" ...-;....... +++@@%@@ +++#++.+#+++..+++. +++.++++++++++ ...... ",
" ...-........ +++@@%@@@  ++++++++++  ++++...+++.+++++++  ..;... ",
" ............ ++++@%@@@  ++++#++##+  ++++...+++.###++++  ..;... ",
" ............. +++@%%@@@ +++#+###+#. +++++++++###+ ++  + ...... ",
" .............. +++@%@@   +++++++#++.++++++#+###++   @++ ...... ",
" .............. +++@@%%@    ++++. .+++. .+++###++  @@@@++ ..... ",
" .....&......... +++@@%@@@    ++.. ...  +++++#+    @@@@++ ..... ",
" ......*>........ +++@@%%@@    +++++++++++++++  @@@@@@++ ...... ",
" ................. ++@@@%%@@@                  @@%@@@++ ....... ",
" .................. ++@@@@%%@@@  @@@@@@@ @@@@@%@%@@@++ ........ ",
" ..........;........ +++@@@@%%%%%@@@@@@@ @@@@%%%@@+++ ......... ",
" ...................  ++++@@@%@@%@@@@@%%@%%%%@@@++++ .......... ",
" ..................... ++++++@@@@%%%%%@@%%@@@@+++    .......... ",
" ...................... +++++++@@@@@@@@@@@@@@++++ ............. ",
" ....................... ++++++++++++++++++++++  .............. ",
" ........................   ++++++++++++++     ................ ",
" ...........................              ..................... ",
" .............................................................. ",
" ...............................................&.............. ",
" .............................................................. ",
" .............................................................. ",
" .............................$................................ ",
" .............................................................. ",
" ............................................$................. ",
" .............................................................. ",
" .............................................................. ",
" ......................................*....................... ",
" .........................................,.................... ",
" .............................................................. ",
" .............................................................. ",
" .............................................................. ",
" .............................................................. ",
" .............................................................. ",
"                                                                "};
