/* XPM */
static char * fcb_xpm[] = {
"64 64 8 1",
" 	c #000000",
".	c #9D5700",
"+	c #EAC200",
"@	c #FF0808",
"#	c #FFFFFF",
"$	c #FFDC08",
"%	c #080AFF",
"&	c #9D0000",
"                                                                ",
" ...............................................................",
" ...............................................................",
" ...............................................................",
" ...............................................................",
" ...............................................................",
" ...............................................................",
" ...............................................................",
" ...............................................................",
" ...............................................................",
" ...............................................................",
" ...............................................................",
" .........................    ........    ......................",
" ................   ...    ++  ......  ++  ....   ..............",
" ...............  +     ++++++        +++++     ++ .............",
" ............... ++++++++++++++++++++++@@++++++++++ ............",
" ............... ++++####@@@@@####+@@$$@@$$@@$$@@++ ............",
" ................ +++####@@@@@####+@@$$@@$$@@$$@++  ............",
" ................  ++####@@@@@####+@@$$@@$$@@$$@++ .............",
" ................. ++####@@@@@####+@@$$@@$$@@$$@+  .............",
" ................. ++@@@@@@@@@@@@@+@@$$@@$$@@$$@+ ..............",
" ................. ++@@@@@@@@@@@@@+@@$$@@$$@@$$@+ ..............",
" ................. ++@@@@@@@@@@@@@+@@$$@@$$@@$$@+ ..............",
" ................. ++@@@@@@@@@@@@@+@@$$@@$$@@$$@+ ..............",
" ................. ++####@@@@@####+@@$$@@$$@@$$@+ ..............",
" ................. ++####@@@@@####+@@$$@@$$@@$$@+ ..............",
" ................  ++####@@@@@####+@@$$@@$$@@$$@+  .............",
" ................ +++####@@@@@####+@@$$@@$$@@$$@++ .............",
" ...............  +++++++++++++++++++++++++++++++++ ............",
" ............... ++++++++++   +++  ++   +++++++++++ ............",
" ..............  ++++++++++ ++++ ++++ + +++++++++++  ...........",
" .............  +++++++++++   ++ ++++   ++++++++++++  ..........",
" .............  +++++++++++ +++++  ++ + ++++++++++++  ..........",
" ..............  ++                               +  ...........",
" ............... ++%%%%&&&&%%%%&&&&%%%%&&&&%%%%&&++  ...........",
" ............... ++%%%%&&&&%%%%&&&&%%%%&&&&%%%%&&++ ............",
" ............... ++%%%%&&&&%%%%     %%%&&&&%%%%&&++ ............",
" ............... ++%%%%&&&&%%% +++++ %%&&&&%%%%&&++ ............",
" ............... ++%%%%&&&&%% +++++++ %&&&&%%%%&&++ ............",
" ...............  +%%%%&&&&%% +++++++ %&&&&%%%%&&++ ............",
" ................ ++%%%&&&&%% +++++++ %&&&&%%%%&++  ............",
" ................  ++%%&&&&%% +++++++ %&&&&%%%%&++ .............",
" ................. ++%%&&&&%%% +++++ %%&&&&%%%%+++ .............",
" .................  ++%&&&&%%%%     %%%&&&&%%%+++ ..............",
" ..................  ++&&&&%%%%&&&&%%%%&&&&%%+++  ..............",
" ...................  +++&&%%%%&&&&%%%%&&&&++++  ...............",
" ....................  ++++%%%%&&&&%%%%&&+++++  ................",
" .....................  +++++++++++++++++++++  .................",
" ......................    +++++++++++++++    ..................",
" .........................     ++++++      .....................",
" .............................  ++++ ...........................",
" ..............................      ...........................",
" ...............................................................",
" ...............................................................",
" ...............................................................",
" ...............................................................",
" ...............................................................",
" ...............................................................",
" ...............................................................",
" ...............................................................",
" ...............................................................",
" ...............................................................",
" ...............................................................",
"                                                                "};
