/* XPM */
static char * image (3)_xpm[] = {
"64 64 166 2",
"  	c #000000",
". 	c #8A6605",
"+ 	c #464646",
"@ 	c #4A4A4A",
"# 	c #454545",
"$ 	c #717171",
"% 	c #B8B8B8",
"& 	c #636363",
"* 	c #444444",
"= 	c #EAEAEA",
"- 	c #FFFFFF",
"; 	c #E8E8E8",
"> 	c #565656",
", 	c #515151",
"' 	c #F7F7F7",
") 	c #FAFAFA",
"! 	c #E5E5E5",
"~ 	c #7E7E7E",
"{ 	c #F8F8F8",
"] 	c #DBDBDB",
"^ 	c #474747",
"/ 	c #ACACAC",
"( 	c #FEFEFE",
"_ 	c #FDFCFD",
": 	c #646464",
"< 	c #4F4F4F",
"[ 	c #4B4B4B",
"} 	c #6A6A6A",
"| 	c #ECECEC",
"1 	c #FDFDFD",
"2 	c #F9F9F9",
"3 	c #E2E2E2",
"4 	c #979797",
"5 	c #777777",
"6 	c #686868",
"7 	c #F1F1F1",
"8 	c #F6F6F6",
"9 	c #CCCCCC",
"0 	c #939393",
"a 	c #494949",
"b 	c #7F7F7F",
"c 	c #EBEBEB",
"d 	c #FCFCFC",
"e 	c #E9E9E9",
"f 	c #C9C9C9",
"g 	c #757575",
"h 	c #535353",
"i 	c #595959",
"j 	c #EDEDED",
"k 	c #F2F2F2",
"l 	c #E0E0E0",
"m 	c #B3B3B3",
"n 	c #555555",
"o 	c #FBFBFB",
"p 	c #F5F5F5",
"q 	c #E6E6E6",
"r 	c #D7D7D7",
"s 	c #616161",
"t 	c #747474",
"u 	c #919191",
"v 	c #A8A8A8",
"w 	c #DDDDDD",
"x 	c #C6C6C6",
"y 	c #707070",
"z 	c #A4A3A4",
"A 	c #A2A2A2",
"B 	c #626262",
"C 	c #F4F4F4",
"D 	c #D1D1D1",
"E 	c #505050",
"F 	c #CFCFCF",
"G 	c #F0F0F0",
"H 	c #797979",
"I 	c #9A9A9A",
"J 	c #D6D6D6",
"K 	c #CACACA",
"L 	c #5B5B5B",
"M 	c #5A5A5A",
"N 	c #BCBCBC",
"O 	c #CECDCE",
"P 	c #CDCDCD",
"Q 	c #D5D5D5",
"R 	c #DEDEDE",
"S 	c #D4D4D4",
"T 	c #A1A1A1",
"U 	c #666666",
"V 	c #EEEEEE",
"W 	c #C8C8C8",
"X 	c #C2C2C2",
"Y 	c #E1E1E1",
"Z 	c #DADADA",
"` 	c #7D7D7D",
" .	c #888888",
"..	c #AFAFAF",
"+.	c #4B4A4B",
"@.	c #FEFDFE",
"#.	c #D9D9D9",
"$.	c #F3F3F3",
"%.	c #C7C7C7",
"&.	c #4C4C4C",
"*.	c #E4E3E4",
"=.	c #C3C3C3",
"-.	c #727272",
";.	c #949494",
">.	c #ABABAB",
",.	c #4E4E4E",
"'.	c #959595",
").	c #525252",
"!.	c #FBFAFB",
"~.	c #DCDCDC",
"{.	c #B0B0B0",
"].	c #5C5C5C",
"^.	c #D0D0D0",
"/.	c #E7E7E7",
"(.	c #5D5D5D",
"_.	c #484848",
":.	c #585858",
"<.	c #D8D8D8",
"[.	c #C5C5C5",
"}.	c #696969",
"|.	c #D3D3D3",
"1.	c #858585",
"2.	c #606060",
"3.	c #B1B1B1",
"4.	c #BBBBBB",
"5.	c #656565",
"6.	c #575757",
"7.	c #ADADAD",
"8.	c #878787",
"9.	c #6E6E6E",
"0.	c #D2D2D2",
"a.	c #A5A5A5",
"b.	c #EFEFEF",
"c.	c #838383",
"d.	c #F7F6F7",
"e.	c #434343",
"f.	c #B4B4B4",
"g.	c #929292",
"h.	c #B7B7B7",
"i.	c #6F6F6F",
"j.	c #CBCBCB",
"k.	c #A9A9A9",
"l.	c #5F5F5F",
"m.	c #F9F8F9",
"n.	c #C4C4C4",
"o.	c #BABABA",
"p.	c #5E5E5E",
"q.	c #545454",
"r.	c #A6A6A6",
"s.	c #7A7A7A",
"t.	c #7B7B7B",
"u.	c #868686",
"v.	c #969696",
"w.	c #A3A3A3",
"x.	c #BDBDBD",
"y.	c #C1C1C1",
"z.	c #C0C0C0",
"A.	c #BEBEBE",
"B.	c #B9B9B9",
"C.	c #A4A4A4",
"D.	c #848484",
"E.	c #787878",
"F.	c #B6B6B6",
"G.	c #8C8C8C",
"H.	c #9B9B9B",
"I.	c #A7A7A7",
"                                                                                                                                ",
"  . . . . . . . . . . . . . . . . . . . . . . . . . . . . . . . . . . . . . . . . . . . . . . . . . . . . . . . . . . . . . .   ",
"  . . . . . . . . . . . . . . . . . . . . . . . . . . . . . . . . . . . . . . . . . . . . . . . . . . . . . . . . . . . . . .   ",
"  . . . . . . . . . . . . . . . . . . . . . . . . . . . . . . . . . . . . . . . . . . . . . . . . . . . . . . . . . . . . . .   ",
"  . . . . . . . . . . . . . . . . . . . . . . . . . . . . . . . . . . . . . . . . . . . . . . . . . . . . . . . . . . . . . .   ",
"  . . . . . . . . . . . . . . . . . . . . . . . . . . . . . . . . . . . . . . . . . . . . . . . . . . . . . . . . . . . . . .   ",
"  . . . . . . . . . . . . . . . . . . . . . . . . . . . . . . . . . . . . . . . . . . . . . . . . . . . . . . . . . . . . . .   ",
"  . . . . . . . . . . . . . . . . . . . . . . . + @ + . . . . . . . . . . . . . . . . . . . . . . . . . . . . . . . . . . . .   ",
"  . . . . . . . . . . . . . . . . . . . . . . # $ % & + . . . . . . . . . . . . . . . . . . . . . . . . . . . . . . . . . . .   ",
"  . . . . . . . . . . . . . . . . . . . . . . * = - ; > + . . . . . . . . . . . . . . . . . . . . . . . . . . . . . . . . . .   ",
"  . . . . . . . . . . . . . . . . . . . . . . , ' - ) ! & +   . . . . . . . . . . . . . . . . . . . . . . . . . . . . . . . .   ",
"  . . . . . . . . . . . . . . . . . . . . . * ~ ) - ) { ] > + ^ # . . . . . . . . . . . . . . . . . . . . . . . . . . . . . .   ",
"  . . . . . . . . . . . . . . . . . . . . . + / ( - ) { { _ : < , [ + # . . . . . . . . . . . . . . . . . . . . . . . . . . .   ",
"  . . . . . . . . . . . . . . . . . . . . + } | - 1 2 { { { 2 ' 3 % 4 5 @ # + . . . . . . . . . . . . . . . . . . . . . . . .   ",
"  . . . . . . . . . . . . . . . . . . . ^ 6 7 - 1 2 { { { { { { { { 8 | 9 0 a + # . . . . . . . . . . . . . . . . . . . . . .   ",
"  . . . . . . . . . . . . . . . . . . # b c - d { { { { { { { { { { { 2 { e f g h # . . . . . . . . . . . . . . . . . . . . .   ",
"  . . . . . . . . . . . . . . . . . + i j ( ) { { { { { { { { { { { { 2 2 { k l m n # . . . . . . . . . . . . . . . . . . . .   ",
"  . . . . . . . . . . . . . . . . . # e - o { { p q ! ' { { { { { { { { { { { ' 3 r s ^ . . . . . . . . . . . . . . . . . . .   ",
"  . . . . . . . . . . . . . . . . + t ' ( 2 { k u ^ a v { { { { { { { { { { { { p w x y # . . . . . . . . . . . . . . . . . .   ",
"  . . . . . . . . . . . . . . . . ^ z - o { { A ^ ^ ^ B C { { { { { { { { { { { { 8 r D E + . . . . . . . . . . . . . . . . .   ",
"  . . . . . . . . . . . . . . . . < F - 2 { G H [ a h I 2 { { { { { { { { { { { { { G J K L * . . . . . . . . . . . . . . . .   ",
"  . . . . . . . . . . . . . . . # M o - { { G N O P Q { { { { { { { { { { { { { { { ' R S T [ . . . . . . . . . . . . . . . .   ",
"  . . . . . . . . . . . . . . . + / - d { { { ' ' ' ' ' { { { { { { { { { { { { { { { | S S U + . . . . . . . . . . . . . . .   ",
"  . . . . . . . . . . . . . . + B d - 2 { { { { { { { { { { { { { V 8 { { { { { { { { ' S S W @ . . . . . . . . . . . . . . .   ",
"  . . . . . . . . . . . . . . # X - d { { { { { { { { { { { { { ' Y | ' { { { { { { { { Z S S ` ^ . . . . . . . . . . . . . .   ",
"  . . . . . . . . . . . . . +  .{ 1 { { { { { { { { { { { { { { j S = { { { { { { { { { | S S ..+.. . . . . . . . . . . . . .   ",
"  . . . . . . . . . . . . ^ a c @.{ { { { { { { { { { { { { { { #.S c { { { { { { { { { $.S S %.: + . . . . . . . . . . . . .   ",
"  . . . . . . . . . . . . &.*.- ) { { { { { { { { { { { { { $.=.S S C { { { { { { { { { p S S Q -.# . . . . . . . . . . . . .   ",
"  . . . . . . . . . . . + ;.o o { { { { { { { { { { { { { { >.,./ S { { { { { { { { { { ' S S S '.# . . . . . . . . . . . . .   ",
"  . . . . . . . . . . ^ ).o !.{ { { { { { { { { { { { { { S # + s ~.{ { { { { { { { { { p S S S X # . . . . . . . . . . . . .   ",
"  . . . . . . . . . * > q 1 { { { { { { ' ' { { { { { $.{.# # # ].R { { { { { { { { { { k S S S ^.*   . . . . . . . . . . . .   ",
"  . . . . . . . . . # {.( 2 { { { { { { /.] 3 { { { 2 b ,.* . * (.R { { { { { { { { { { ; S S S r _.  . . . . . . . . . . . .   ",
"  . . . . . . . . . :.<.2 { { { { { { { Q S [.%.r N > + . . . + }.8 { { { { { { { { { { r S S S |.[ ^ . . . . . . . . . . . .   ",
"  . . . . . . . . . i J { { { { { { { q X 1.2.n _.# * . . . . ^ 3.{ { { { { { { { { { ' S S S S S ).^ . . . . . . . . . . . .   ",
"  . . . . . . . . . * 4.{ { { { { { { S L + + . . . . . . . ^ 5.{ { { { { { { { { { { e S S S S S 6.+ . . . . . . . . . . . .   ",
"  . . . . . . . . . * _.7.] { { { { e 8._.. . . . . . . . # U ! { { { { { { { { { { 8 w S S S S S E # . . . . . . . . . . . .   ",
"  . . . . . . . . .   # _.i 9.0.2 { a.a * . . . . . . . # n ; { { { { { { { { { { { b.Q S S S S J a + . . . . . . . . . . . .   ",
"  . . . . . . . . . . .   + + # + E @ # . . . . . . # @ c.d.{ { { { { { { { { { { { ] S S S S S J e.. . . . . . . . . . . . .   ",
"  . . . . . . . . . . . . . . . . . . . . . . . . ^ e.f.V { { { { { { { { { { { { ! S S S S S S N + . . . . . . . . . . . . .   ",
"  . . . . . . . . . . . . . . . . . . . . . . . + a f { { { { { { { { { { { { { j Q S S S S S S g.^ . . . . . . . . . . . . .   ",
"  . . . . . . . . . . . . . . . . . . . . . . # * h.{ { { { { { { { { { { { { ' w S S S S S S S i.+ . . . . . . . . . . . . .   ",
"  . . . . . . . . . . . . . . . . . . . . . . e.K ' { { { { { { { { { { { { { 3 S S S S S S S j.6 ^ . . . . . . . . . . . . .   ",
"  . . . . . . . . . . . . . . . . . . . . . ^ 4 p { { { { { { { { { { { { { V S S S S S S S S m E . . . . . . . . . . . . . .   ",
"  . . . . . . . . . . . . . . . . . . . . * M q { { { { { { { { { { { { { p w S S S S S S S S k.# . . . . . . . . . . . . . .   ",
"  . . . . . . . . . . . . . . . . . . . . # x { { { { { { { { { { { { { { b.S S S S S S S S S ` _.. . . . . . . . . . . . . .   ",
"  . . . . . . . . . . . . . . . . . . . # l.) 2 m.8 7 /.Z 9 9 [.n.n.n.n.n.o.f.N %.0.|.Q S S Q &.. . . . . . . . . . . . . . .   ",
"  . . . . . . . . . . . . . . . . . . . + ~ 5 p.i 6.:.n h E , < < < < < < ,.< E ).> q.h L H r.+ . . . . . . . . . . . . . . .   ",
"  . . . . . . . . . . . . . . . . . . ^ # 6.9.s.H t.u.v.w.m 4.x.y.[.x z.A.B.{.C.4 D.E.H s.} ,.+ # . . . . . . . . . . . . . .   ",
"  . . . . . . . . . . . . . . . . # * D.x #.b.d - - - - - - - - - - - - - - - - - ( - ( o | F A.$ + # . . . . . . . . . . . .   ",
"  . . . . . . . . . . . . . . . + ,.N ( - ( ( ( ( 1 1 1 1 1 d !.!.!.!.!.!.d d d d 1 1 ( ( ( ( ( ( F.@ . . . . . . . . . . . .   ",
"  . . . . . . . . . . . . . . . e.f.o ) 2 { { { { { { { { { { { { { { { { { { { { { { { { 2 2 ) o ' G.+ . . . . . . . . . . .   ",
"  . . . . . . . . . . . . . . . < ) { { { { { { { { { { { { { { { { { { { { { { { { { { { { { { { { 9 < . . . . . . . . . . .   ",
"  . . . . . . . . . . . . . . + b ' { { { { { { { { { { { { { { { { { { { { { { { { { { { { { { { { $.).+ . . . . . . . . . .   ",
"  . . . . . . . . . . . . . . ^ H.{ { { { { { { { { { { { { { { { { { { { { { { { { { { { { { { { { 2 ,._.. . . . . . . . . .   ",
"  . . . . . . . . . . . . . . ^ I.{ { { { { { { { { { { { { { { { { { { { { { { { { { { { { { { { { ) < + . . . . . . . . . .   ",
"  . . . . . . . . . . . . . . + I.' { { { { { { { { { { { { { { { { { { { { { { { { { { { { { { { { ) < + . . . . . . . . . .   ",
"  . . . . . . . . . . . . . . ^ y '.;.'.'.'.'.'.'.'.'.'.'.'.'.'.'.'.'.'.'.'.'.'.'.'.'.'.'.'.'.'.'.'.4 a + . . . . . . . . . .   ",
"  . . . . . . . . . . . . . . ^ + + + + + + + + + + + + + + + + + + + + + + + + + + + + + + + + + + + + # . . . . . . . . . .   ",
"  . . . . . . . . . . . . . . . . . . . . . . . . . . . . . . . . . . . . . . . . . . . . . . . . . . . . . . . . . . . . . .   ",
"  . . . . . . . . . . . . . . . . . . . . . . . . . . . . . . . . . . . . . . . . . . . . . . . . . . . . . . . . . . . . . .   ",
"  . . . . . . . . . . . . . . . . . . . . . . . . . . . . . . . . . . . . . . . . . . . . . . . . . . . . . . . . . . . . . .   ",
"  . . . . . . . . . . . . . . . . . . . . . . . . . . . . . . . . . . . . . . . . . . . . . . . . . . . . . . . . . . . . . .   ",
"  . . . . . . . . . . . . . . . . . . . . . . . . . . . . . . . . . . . . . . . . . . . . . . . . . . . . . . . . . . . . . .   ",
"                                                                                                                                "};
