/* XPM */
static char * pawn_xpm[] = {
"64 64 5 1",
" 	c #000000",
".	c #CDC1A2",
"+	c #2A1F02",
"@	c #533F09",
"#	c #120D01",
"                                                                ",
" .............................................................. ",
" .............................................................. ",
" .............................................................. ",
" .............................................................. ",
" .............................................................. ",
" .............................................................. ",
" .............................................................. ",
" .............................................................. ",
" .............................................................. ",
" .............................................................. ",
" .............................................................. ",
" .............................................................. ",
" .............................................................. ",
" .............................................................. ",
" ...........................        ........................... ",
" ..........................  ++++++  .......................... ",
" .........................  ++++++++  ......................... ",
" ........................  ++++++++++  ........................ ",
" .......................  ++++++++++++  ....................... ",
" ....................... ++++++++++++++ ....................... ",
" ....................... ++++++++++++++ ....................... ",
" ...................... ++++++++++++++@@ ...................... ",
" ...................... ++++++++++++++@@ ...................... ",
" ....................... ++++++++++++@@ ....................... ",
" ....................... ++++++++++++@@ ....................... ",
" .......................  ++++++++++@@  ....................... ",
" ........................ ++++++++@@@@ ........................ ",
" ........................  ++++++@@@@  ........................ ",
" .........................  ++++@@#@  ......................... ",
" ........................  #########+  ........................ ",
" ......................   +++++###++++   ...................... ",
" .....................  ++++++++++++++++  ..................... ",
" ..................... ++++++++++++++++++ ..................... ",
" ..................... ++++++++++++++++++ ..................... ",
" .....................  ++++++++++++++++  ..................... ",
" ......................   ###########    ...................... ",
" ......................... +@@@@@@@@@ ......................... ",
" ......................... +++@@@@@@@ ......................... ",
" ......................... +++++@@@@@ ......................... ",
" ......................... +++++@@@@@ ......................... ",
" ......................... +++++++@@@ ......................... ",
" ........................  +++++++@@@  ........................ ",
" .......................  ++++++++@@@@  ....................... ",
" ......................  ++++++++++@@@@  ...................... ",
" .....................  ++++++++++++@@@@  ..................... ",
" ...................   ++++++++++++++@@@@   ................... ",
" .................   +++++++++++++++++++@@@   ................. ",
" ................. ++++++++++++++++++++++++++ ................. ",
" ................  ++++++++++++++++++++++++++  ................ ",
" ...............  ++++++++++++++++++++++++++++  ............... ",
" ............... ++++++++++++++++++++++++++++++ ............... ",
" ............... ++++++++++++++++++++++++++++++ ............... ",
" ..............  ++++++++++++++++++++++++++++++  .............. ",
" .............. ++++++++++++++++++++++++++++++++ .............. ",
" .............. ++++++++++++++++++++++++++++++++ .............. ",
" .............. ++++++++++++++++++++++++++++++++ .............. ",
" ..............                                  .............. ",
" .............................................................. ",
" .............................................................. ",
" .............................................................. ",
" .............................................................. ",
" .............................................................. ",
"                                                                "};
