/* XPM */
static char * rook_xpm[] = {
"64 64 4 1",
" 	c #000000",
".	c #8A6605",
"+	c #CDC1A2",
"@	c #99917D",
"                                                                ",
" .............................................................. ",
" .............................................................. ",
" .............................................................. ",
" .............................................................. ",
" .............................................................. ",
" .............................................................. ",
" .............................................................. ",
" .............................................................. ",
" .............................................................. ",
" .............................................................. ",
" ..........................          .......................... ",
" .................      ... ++++++++ ...      ................. ",
" ................  ++++ ... ++++++++ ... +++@  ................ ",
" ................ +++++ ... ++++++++ ... +++@@ ................ ",
" ................ +++++ ... ++++++++ ... +++@@ ................ ",
" ................ +++++ ... ++++++++ ... +++@@ ................ ",
" ................ +++++  .. ++++++++ ..  +++@@ ................ ",
" ................ ++++++    ++++++++    ++++@@ ................ ",
" ................ +++++++++++++++++++++++++@@@ ................ ",
" ................ ++++++++++++++++++++++++@@@@ ................ ",
" ................ +++++++++++++++++++++++@@@@@ ................ ",
" ................ ++++++++++++++++++++++@@@@@@ ................ ",
" ................  +++++++++++++++++++@@@@@@@  ................ ",
" .................  +++++++++++++++++@@@@@@@  ................. ",
" ..................                          .................. ",
" ...................                        ................... ",
" .................... +++++++++++++@@@@@@@ .................... ",
" .................... +++++++++++++@@@@@@@ .................... ",
" .................... +++++++++++++@@@@@@@ .................... ",
" .................... +++++++++++++@@@@@@@ .................... ",
" .................... +++++++++++++@@@@@@@@ ................... ",
" ................... +++++++++++++++@@@@@@@ ................... ",
" ................... ++++++++++++++++@@@@@@ ................... ",
" ................... ++++++++++++++++@@@@@@ ................... ",
" ................... +++++++++++++++++@@@@@ ................... ",
" ................... +++++++++++++++++@@@@@ ................... ",
" ................... ++++++++++++++++++@@@@ ................... ",
" ................... ++++++++++++++++++@@@@ ................... ",
" ................... ++++++++++++++++++@@@@ ................... ",
" ................... +++++++++++++++++++@@@ ................... ",
" ................... +++++++++++++++++++@@@@ .................. ",
" .................. ++++++++++++++++++++@@@@ .................. ",
" .................. +++++++++++++++++++++@@@ .................. ",
" .................. +++++++++++++++++++++@@@ .................. ",
" .................. +++++++++++++++++++++@@@ .................. ",
" ..................                          .................. ",
" .................                            ................. ",
" ................ ++++++++++++++++++++++++++++ ................ ",
" .............    ++++++++++++++++++++++++++++    ............. ",
" ............. ++++++++++++++++++++++++++++++++++ ............. ",
" ............. ++++++++++++++++++++++++++++++++++ ............. ",
" ............. ++++++++++++++++++++++++++++++++++ ............. ",
" ............. ++++++++++++++++++++++++++++++++++ ............. ",
" ............. ++++++++++++++++++++++++++++++++++ ............. ",
" ............. ++++++++++++++++++++++++++++++++++ ............. ",
" ............. ++++++++++++++++++++++++++++++++++ ............. ",
" .............                                    ............. ",
" .............................................................. ",
" .............................................................. ",
" .............................................................. ",
" .............................................................. ",
" .............................................................. ",
"                                                                "};
